<svg xmlns="http://www.w3.org/2000/svg" xmlns:osb="http://www.openswatchbook.org/uri/2009/osb" xmlns:svg="http://www.w3.org/2000/svg" id="svg2" width="60" height="60" version="1.1" viewBox="0 0 60 60"><defs id="defs4"><linearGradient id="linearGradient5611" osb:paint="solid"><stop style="stop-color:#000;stop-opacity:1" id="stop5613" offset="0"/></linearGradient></defs><metadata id="metadata7"/><g id="layer1" transform="translate(0,-992.36216)"><path style="fill:#c6e9af;fill-rule:evenodd" id="path4142" d="M 0.00552427,992.352 0,1052.3661 l 60.015625,0 0,-59.99222 z"/><path style="fill:#80b3ff;fill-rule:evenodd" id="path3336" d="m 60.006697,1017.9755 c -14.189295,-4.9806 -28.403195,-2.5039 -34.136363,5.8994 -5.733168,8.4034 -9.546506,22.5293 7.330843,28.4756 l 26.636006,0.02 z"/><ellipse style="fill:none;stroke:#aa0040;stroke-width:1.255;stroke-opacity:1;stroke-miterlimit:4;stroke-dasharray:none" id="path4165" cx="24.616" cy="1027.216" rx="17.771" ry="18.213"/><path style="fill:#f60;fill-rule:evenodd;stroke:#004a0b;stroke-width:1px;stroke-linecap:butt;stroke-linejoin:miter;stroke-opacity:1" id="path5617" d="m 20.417708,996.41234 35.708893,23.51126 0,0 0,0 0,0"/><rect style="fill:#f60;stroke:#004a0b;stroke-width:1.18065214;stroke-miterlimit:4;stroke-dasharray:none;stroke-opacity:1" id="rect5621" width="1.165" height="1.227" x="-573.126" y="650.157" transform="matrix(0.60083109,-0.79937601,0.56046237,0.82817989,0,0)"/><rect style="fill:#f60;stroke:#004a0b;stroke-width:1.08908677;stroke-miterlimit:4;stroke-dasharray:none;stroke-opacity:1" id="rect5621-3" width="1.076" height="1.13" x="-573.272" y="706.991" transform="matrix(0.62625458,-0.77961863,0.58603841,0.81028327,0,0)"/><rect style="fill:#f60;stroke:#aa0040;stroke-width:1.08908677;stroke-miterlimit:4;stroke-dasharray:none;stroke-opacity:1" id="rect5621-3-6" width="1.076" height="1.13" x="-604.406" y="685.466" transform="matrix(0.62625458,-0.77961863,0.58603841,0.81028327,0,0)"/></g></svg>